# xmcd
# 
# Track frame offsets:
#     150
#     16889
#     33635
#     50324
# 
# Disc length: 891
# 
# Revision: 0
# Processed by: cddbd v1.5.2PL0 Copyright (c) Steve Scherf et al.
# Submitted via: BonkEnc v1.0.8
# 
DISCID=28037904
DTITLE=平野綾 - Set me free
DYEAR=2009
DGENRE=Blues
TTITLE0=Set me free
TTITLE1=Sing a Song！
TTITLE2=Set me free (off vocal)
TTITLE3=Sing a Song！ (off vocal)
EXTD=
EXTT0=
EXTT1=
EXTT2=
EXTT3=
PLAYORDER=
